<svg xmlns="http://www.w3.org/2000/svg" width="30.95" height="30.67" viewBox="0 0 30.95 30.67"><defs><style>.cls-1{fill:#f0efef;}</style></defs><g id="Layer_2" data-name="Layer 2"><g id="Layer_1-2" data-name="Layer 1"><path class="cls-1" d="M28.41,30.55H9.49a1,1,0,1,1,0-2H28.41A.55.55,0,0,0,29,28V2.55A.55.55,0,0,0,28.41,2H2.55A.55.55,0,0,0,2,2.55v18.8a1,1,0,0,1-2,0V2.55A2.55,2.55,0,0,1,2.55,0H28.41A2.55,2.55,0,0,1,31,2.55V28A2.55,2.55,0,0,1,28.41,30.55Z"/><path class="cls-1" d="M1.12,30.67a1,1,0,0,1-.7-.29A1,1,0,0,1,.42,29L17,12.37a1,1,0,1,1,1.42,1.42L1.83,30.38A1,1,0,0,1,1.12,30.67Z"/><path class="cls-1" d="M17.51,14.08H10.33a1,1,0,0,1,0-2h7.18a1,1,0,0,1,0,2Z"/><path class="cls-1" d="M17.71,21.5a1,1,0,0,1-1-1V13.32a1,1,0,0,1,2,0V20.5A1,1,0,0,1,17.71,21.5Z"/></g></g></svg>
