<svg id="Layer_1" data-name="Layer 1" xmlns="http://www.w3.org/2000/svg" width="48" height="48" viewBox="0 0 48 48"><defs><style>.cls-1{fill:#f0efef;}</style></defs><path class="cls-1" d="M24,43.21a18.6,18.6,0,1,1,15.28-8,19.2,19.2,0,0,0,1.25,2.12c1.33,2.06,2.21,3.42,1.3,4.34h0c-.81.81-2.12.18-4.51-.95a22.26,22.26,0,0,0-2.43-1.05A18.49,18.49,0,0,1,24,43.21ZM24,8A16.63,16.63,0,1,0,34,37.91c.77-.58,1.8-.13,4.24,1,.4.19.92.44,1.4.65-.24-.4-.52-.82-.73-1.14-1.28-2-2.06-3.19-1.39-4.11A16.62,16.62,0,0,0,24,8Z"/><path class="cls-1" d="M24,20.69a1.5,1.5,0,0,0-1.5,1.5v10a1.5,1.5,0,0,0,3,0v-10A1.5,1.5,0,0,0,24,20.69Z"/><path class="cls-1" d="M24,14.67a1.5,1.5,0,0,0-1.06.44,1.51,1.51,0,0,0,0,2.13,1.5,1.5,0,0,0,2.12,0,1.51,1.51,0,0,0,0-2.13A1.5,1.5,0,0,0,24,14.67Z"/></svg>