<svg id="Layer_1" data-name="Layer 1" xmlns="http://www.w3.org/2000/svg" width="48" height="48" viewBox="0 0 48 48"><defs><style>.cls-1{fill:#f0efef;}.cls-2{fill:none;}</style></defs><path class="cls-1" d="M39.8445,22.5522l-3.2954-3.2954a2.0476,2.0476,0,0,0-3.4956,1.4478V23H25V14.9463h2.2959a2.0473,2.0473,0,0,0,1.4477-3.4951L25.4475,8.1558a2.0959,2.0959,0,0,0-2.895,0l-3.2964,3.2954a2.0476,2.0476,0,0,0,1.4483,3.4951H23V23H14.9466V20.7046a2.0474,2.0474,0,0,0-3.4952-1.4478L8.1551,22.5527a2.0505,2.0505,0,0,0,0,2.8951l3.2955,3.2954a2.0476,2.0476,0,0,0,3.4956-1.4478V25H23v8.0537H20.7044a2.0473,2.0473,0,0,0-1.4478,3.4951l3.2959,3.2954a2.0458,2.0458,0,0,0,2.895,0l3.2964-3.2954a2.0476,2.0476,0,0,0-1.4482-3.4951H25V25h8.0537v2.2954a2.0464,2.0464,0,0,0,3.4951,1.4478l3.2964-3.2959A2.05,2.05,0,0,0,39.8445,22.5522Zm-19.1738-9.687L24,9.5557a.0434.0434,0,0,1,.0327.0136l3.2627,3.377ZM12.8655,27.3291,9.57,24.0342a.0488.0488,0,0,1-.0005-.0679l3.377-3.2617Zm14.4639,7.8057L24,38.4443a.0436.0436,0,0,1-.0332-.0136l-3.2627-3.377Zm7.7241-7.8394.081-6.6245L38.43,23.9658a.0489.0489,0,0,1,0,.0679Z"/><rect class="cls-2" x="0.0169" width="48" height="48"/></svg>