<svg id="Layer_1" data-name="Layer 1" xmlns="http://www.w3.org/2000/svg" width="48" height="48" viewBox="0 0 48 48"><defs><style>.cls-1{fill:#f0efef;}.cls-2{fill:none;}</style></defs><path class="cls-1" d="M37.2954,17.7747H31.0415a1,1,0,0,0,0,2h6.2539a.71.71,0,0,1,.6074.7656V38.5911a.71.71,0,0,1-.6074.7657H10.7046a.71.71,0,0,1-.6074-.7657V20.54a.71.71,0,0,1,.6074-.7656h6.2539a1,1,0,0,0,0-2H10.7046A2.6932,2.6932,0,0,0,8.0972,20.54V38.5911a2.6933,2.6933,0,0,0,2.6074,2.7657H37.2954a2.6933,2.6933,0,0,0,2.6074-2.7657V20.54A2.6932,2.6932,0,0,0,37.2954,17.7747Z"/><path class="cls-1" d="M24,27.8987a1,1,0,0,0,1-1V9.7123L28.2173,12.94a1,1,0,0,0,1.416-1.4122L25.272,7.1536a1.84,1.84,0,0,0-2.5449.001l-4.36,4.373a1,1,0,0,0,1.416,1.4122L23,9.7141V26.8987A1,1,0,0,0,24,27.8987Z"/><rect class="cls-2" x="0.0149" width="48" height="48"/></svg>