<?xml version="1.0" encoding="utf-8"?>
<!-- Generator: Adobe Illustrator 24.2.3, SVG Export Plug-In . SVG Version: 6.00 Build 0)  -->
<svg version="1.1" id="Layer_1" xmlns="http://www.w3.org/2000/svg" xmlns:xlink="http://www.w3.org/1999/xlink" x="0px" y="0px"
	 viewBox="0 0 48 48" style="enable-background:new 0 0 48 48;" xml:space="preserve">
<style type="text/css">
	.st0{fill:#0F9D58;}
	.st1{fill:#4285F4;}
	.st2{fill:#8C15FF;}
	.st3{fill:#D93025;}
	.st4{display:none;}
	.st5{display:inline;}
	.st6{fill:#525353;}
	.st7{fill:none;stroke:#DBDBDB;stroke-width:5.000000e-02;stroke-miterlimit:10;}
	.st8{opacity:0.5;fill:#F6D2D6;stroke:#F4B8C0;stroke-width:0.25;stroke-miterlimit:10;}
	.st9{display:inline;fill:none;}
	.st10{fill:none;stroke:#000000;stroke-width:2;stroke-linecap:round;stroke-miterlimit:10;}
	.st11{fill:none;stroke:#000000;stroke-width:2;stroke-linecap:round;stroke-linejoin:round;stroke-miterlimit:10;}
	.st12{fill:none;stroke:#000000;stroke-width:2;stroke-miterlimit:10;}
	.st13{fill:none;stroke:#000000;stroke-width:1.5;stroke-miterlimit:10;}
	.st14{fill:none;stroke:#000000;stroke-linecap:round;stroke-miterlimit:10;}
	.st15{fill:#606060;stroke:#000000;stroke-width:2;stroke-miterlimit:10;}
	.st16{fill:#606060;}
	.st17{fill:#F0EFEF;}
	.st18{fill:#FFFFFF;}
	.st19{fill:#FFAA00;}
	.st20{fill:none;}
	.st21{fill:none;stroke:#000000;stroke-width:3;stroke-linecap:round;stroke-miterlimit:10;}
</style>
<path class="st3" d="M40,9.9v28.1c0,1.1-0.9,1.9-1.9,1.9H9.9C8.9,40,8,39.1,8,38.1V9.9C8,8.9,8.9,8,9.9,8h28.1C39.1,8,40,8.9,40,9.9
	z"/>
<g>
	<g>
		<path class="st18" d="M33.9,29.7c-0.2,0-0.3,0-0.4-0.1l-5.5-2.7c-0.5-0.2-0.7-0.8-0.4-1.3c0.2-0.5,0.8-0.7,1.3-0.4l4.1,2v-6.2
			l-4.1,2c-0.5,0.2-1.1,0-1.3-0.4c-0.2-0.5,0-1.1,0.4-1.3l5.5-2.7c0.3-0.2,0.7-0.1,1,0c0.3,0.2,0.5,0.5,0.5,0.9v9.4
			c0,0.3-0.2,0.7-0.5,0.9C34.2,29.7,34,29.7,33.9,29.7z"/>
	</g>
	<g>
		<path class="st18" d="M28.4,32.1H14.1c-0.6,0-1-0.4-1-1V16.9c0-0.6,0.4-1,1-1h14.2c0.6,0,1,0.4,1,1v14.2
			C29.4,31.7,28.9,32.1,28.4,32.1z M15.1,30.1h12.2V17.9H15.1V30.1z"/>
	</g>
	<g>
		<path class="st18" d="M21.2,27.8c-2.1,0-3.8-1.7-3.8-3.8c0-2.1,1.7-3.8,3.8-3.8S25,21.9,25,24C25,26.1,23.3,27.8,21.2,27.8z
			 M21.2,22.2c-1,0-1.8,0.8-1.8,1.8c0,1,0.8,1.8,1.8,1.8S23,25,23,24C23,23,22.2,22.2,21.2,22.2z"/>
	</g>
</g>
<rect y="0" class="st20" width="48" height="48"/>
</svg>
