<svg id="Layer_1" data-name="Layer 1" xmlns="http://www.w3.org/2000/svg" viewBox="0 0 48 48"><defs><style>.cls-1,.cls-2,.cls-3{fill:#fff;}.cls-2,.cls-3{stroke:#fff;stroke-linecap:round;}.cls-2{stroke-miterlimit:10;stroke-width:2px;}.cls-3{stroke-linejoin:round;}</style></defs><path class="cls-1" d="M6.65,7.84H22.17a1,1,0,0,1,0,2H6.65a.54.54,0,0,0-.59.5v25.5a.54.54,0,0,0,.54.55H32.51a.55.55,0,0,0,.55-.55V20.52a1,1,0,1,1,2,0V35.84a2.56,2.56,0,0,1-2.55,2.55H6.65a2.55,2.55,0,0,1-2.59-2.51V10.39A2.55,2.55,0,0,1,6.61,7.84Z"/><line class="cls-2" x1="27.83" y1="8.88" x2="39.91" y2="8.88"/><line class="cls-2" x1="33.87" y1="14.92" x2="33.87" y2="2.85"/><polygon class="cls-3" points="14.67 25.72 9.78 32 29.33 32 23.04 23.63 18.15 29.92 14.67 25.72"/></svg>