<svg id="Layer_1" data-name="Layer 1" xmlns="http://www.w3.org/2000/svg" width="48" height="48" viewBox="0 0 48 48"><defs><style>.cls-1{fill:#f0efef;}.cls-2{fill:none;}</style></defs><path class="cls-1" d="M21.2974,21.6627c.17.0127.3393.02.5083.02a6.6393,6.6393,0,1,0-.5083-.02Zm-2.51-10.0942a4.58,4.58,0,0,1,3.0005-1.1152q.1765,0,.3545.0131a4.6144,4.6144,0,1,1-3.355,1.1021Z"/><path class="cls-1" d="M30.5464,25.54a7.0929,7.0929,0,0,0-5.4116-2.5375H18.4507a7.0776,7.0776,0,0,0-7.07,7.07v4.8208H22.962A7.0364,7.0364,0,1,0,30.5464,25.54ZM13.3809,32.8934V30.0726a5.0757,5.0757,0,0,1,5.07-5.07h6.6841A5.0378,5.0378,0,0,1,27.73,25.72a7.0477,7.0477,0,0,0-5.1936,6.7868c0,.13.0126.2579.02.3867Zm16.1972,4.6543a5.041,5.041,0,1,1,5.041-5.041A5.0469,5.0469,0,0,1,29.5781,37.5477Z"/><path class="cls-1" d="M31.9478,31.5067h-1.37v-1.37a1,1,0,0,0-2,0v1.37h-1.37a1,1,0,0,0,0,2h1.37v1.37a1,1,0,0,0,2,0v-1.37h1.37a1,1,0,0,0,0-2Z"/><rect class="cls-2" x="0.0188" width="48" height="48"/></svg>