<?xml version="1.0" encoding="utf-8"?>
<!-- Generator: Adobe Illustrator 24.2.3, SVG Export Plug-In . SVG Version: 6.00 Build 0)  -->
<svg version="1.1" id="Layer_1" xmlns="http://www.w3.org/2000/svg" xmlns:xlink="http://www.w3.org/1999/xlink" x="0px" y="0px"
	 viewBox="0 0 48 48" style="enable-background:new 0 0 48 48;" xml:space="preserve">
<style type="text/css">
	.st0{fill:#0F9D58;}
	.st1{fill:#4285F4;}
	.st2{fill:#8C15FF;}
	.st3{fill:#D93025;}
	.st4{display:none;}
	.st5{display:inline;}
	.st6{fill:#525353;}
	.st7{fill:none;stroke:#DBDBDB;stroke-width:5.000000e-02;stroke-miterlimit:10;}
	.st8{opacity:0.5;fill:#F6D2D6;stroke:#F4B8C0;stroke-width:0.25;stroke-miterlimit:10;}
	.st9{display:inline;fill:none;}
	.st10{fill:none;stroke:#000000;stroke-width:2;stroke-linecap:round;stroke-miterlimit:10;}
	.st11{fill:none;stroke:#000000;stroke-width:2;stroke-linecap:round;stroke-linejoin:round;stroke-miterlimit:10;}
	.st12{fill:none;stroke:#000000;stroke-width:2;stroke-miterlimit:10;}
	.st13{fill:none;stroke:#000000;stroke-width:1.5;stroke-miterlimit:10;}
	.st14{fill:none;stroke:#000000;stroke-linecap:round;stroke-miterlimit:10;}
	.st15{fill:#606060;stroke:#000000;stroke-width:2;stroke-miterlimit:10;}
	.st16{fill:#606060;}
	.st17{fill:#F0EFEF;}
	.st18{fill:#FFFFFF;}
	.st19{fill:#FFAA00;}
	.st20{fill:none;}
	.st21{fill:none;stroke:#000000;stroke-width:3;stroke-linecap:round;stroke-miterlimit:10;}
</style>
<g>
	<rect x="0" class="st20" width="48" height="48"/>
	<g>
		<path class="st17" d="M17.3,24.8H24c0.6,0,1-0.4,1-1s-0.4-1-1-1h-6.7c-0.6,0-1,0.4-1,1S16.7,24.8,17.3,24.8z"/>
		<path class="st17" d="M17.3,20.8h13.4c0.6,0,1-0.4,1-1s-0.4-1-1-1H17.3c-0.6,0-1,0.4-1,1S16.7,20.8,17.3,20.8z"/>
		<path class="st17" d="M17.3,16.8h13.4c0.6,0,1-0.4,1-1s-0.4-1-1-1H17.3c-0.6,0-1,0.4-1,1S16.7,16.8,17.3,16.8z"/>
		<path class="st17" d="M41.7,27.7c0-0.1,0-0.2-0.1-0.3c0,0,0,0,0-0.1c0,0,0,0,0,0l-3.4-7c-0.2-0.3-0.5-0.6-0.9-0.6h-1.2v-7.7
			c0-1-0.8-1.9-1.9-1.9h-0.2v-2c0-1-0.8-1.9-1.9-1.9H15.8c-1,0-1.9,0.8-1.9,1.9v2h-0.2c-1,0-1.9,0.8-1.9,1.9v7.7h-1.2
			c-0.4,0-0.7,0.2-0.9,0.6l-3.4,7c0,0,0,0,0,0c0,0,0,0,0,0.1c0,0.1-0.1,0.2-0.1,0.3c0,0,0,0,0,0v11.9c0,1,0.8,1.9,1.9,1.9h31.7
			c1,0,1.9-0.8,1.9-1.9L41.7,27.7C41.7,27.8,41.7,27.8,41.7,27.7z M36.7,21.8l2.5,5h-3v-5H36.7z M15.9,8.4h16.2v1.8H15.9V8.4z
			 M13.9,12.2h20.2v14.6H28c-0.6,0-1,0.4-1,1v2.7h-6v-2.7c0-0.6-0.4-1-1-1h-6.1V12.2z M11.3,21.8h0.5v5h-3L11.3,21.8z M39.7,39.6
			H8.3V28.8H19v1.8c0,1,0.8,1.9,1.9,1.9h6.2c1,0,1.9-0.8,1.9-1.9v-1.8h10.7V39.6z"/>
	</g>
</g>
</svg>
