<?xml version="1.0" encoding="utf-8"?>
<!-- Generator: Adobe Illustrator 24.2.3, SVG Export Plug-In . SVG Version: 6.00 Build 0)  -->
<svg version="1.1" id="Layer_1" xmlns="http://www.w3.org/2000/svg" xmlns:xlink="http://www.w3.org/1999/xlink" x="0px" y="0px"
	 viewBox="0 0 48 48" style="enable-background:new 0 0 48 48;" xml:space="preserve">
<style type="text/css">
	.st0{fill:#0F9D58;}
	.st1{fill:#4285F4;}
	.st2{fill:#8C15FF;}
	.st3{fill:#D93025;}
	.st4{display:none;}
	.st5{display:inline;}
	.st6{fill:#525353;}
	.st7{fill:none;stroke:#DBDBDB;stroke-width:5.000000e-02;stroke-miterlimit:10;}
	.st8{opacity:0.5;fill:#F6D2D6;stroke:#F4B8C0;stroke-width:0.25;stroke-miterlimit:10;}
	.st9{display:inline;fill:none;}
	.st10{fill:none;stroke:#000000;stroke-width:2;stroke-linecap:round;stroke-miterlimit:10;}
	.st11{fill:none;stroke:#000000;stroke-width:2;stroke-linecap:round;stroke-linejoin:round;stroke-miterlimit:10;}
	.st12{fill:none;stroke:#000000;stroke-width:2;stroke-miterlimit:10;}
	.st13{fill:none;stroke:#000000;stroke-width:1.5;stroke-miterlimit:10;}
	.st14{fill:none;stroke:#000000;stroke-linecap:round;stroke-miterlimit:10;}
	.st15{fill:#606060;stroke:#000000;stroke-width:2;stroke-miterlimit:10;}
	.st16{fill:#606060;}
	.st17{fill:#F0EFEF;}
	.st18{fill:#FFFFFF;}
	.st19{fill:#FFAA00;}
	.st20{fill:none;}
	.st21{fill:none;stroke:#000000;stroke-width:3;stroke-linecap:round;stroke-miterlimit:10;}
</style>
<path class="st2" d="M40,9.9v28.1c0,1.1-0.9,1.9-1.9,1.9H9.9C8.9,40,8,39.1,8,38.1V9.9C8,8.9,8.9,8,9.9,8h28.1C39.1,8,40,8.9,40,9.9
	z"/>
<g>
	<g>
		<path class="st18" d="M16.9,35.1c-2.3,0-4.1-1.8-4.1-4.1s1.8-4.1,4.1-4.1S21,28.7,21,31S19.2,35.1,16.9,35.1z M16.9,28.8
			c-1.2,0-2.1,1-2.1,2.1s1,2.1,2.1,2.1s2.1-1,2.1-2.1S18.1,28.8,16.9,28.8z"/>
	</g>
	<g>
		<path class="st18" d="M29.1,33.8c-2.3,0-4.1-1.8-4.1-4.1c0-2.3,1.8-4.1,4.1-4.1c2.3,0,4.1,1.8,4.1,4.1
			C33.2,32,31.4,33.8,29.1,33.8z M29.1,27.6c-1.2,0-2.1,1-2.1,2.1s1,2.1,2.1,2.1s2.1-1,2.1-2.1S30.3,27.6,29.1,27.6z"/>
	</g>
	<g>
		<path class="st18" d="M20,32c-0.6,0-1-0.4-1-1V15.2c0-0.5,0.4-0.9,0.9-1l12.2-1.2c0.3,0,0.6,0.1,0.8,0.3c0.2,0.2,0.3,0.5,0.3,0.7
			v15.8c0,0.6-0.4,1-1,1c-0.6,0-1-0.4-1-1V15l-10.2,1V31C21,31.5,20.6,32,20,32z"/>
	</g>
	<g>
		<path class="st18" d="M20,21.2c-0.5,0-0.9-0.4-1-0.9c-0.1-0.5,0.3-1,0.9-1.1L32.1,18c0.6-0.1,1,0.3,1.1,0.9c0.1,0.5-0.3,1-0.9,1.1
			l-12.2,1.2C20.1,21.2,20.1,21.2,20,21.2z"/>
	</g>
</g>
<rect x="0" y="0" class="st20" width="48" height="48"/>
</svg>
