<svg id="Layer_1" data-name="Layer 1" xmlns="http://www.w3.org/2000/svg" width="48" height="48" viewBox="0 0 48 48"><defs><style>.cls-1{fill:#f0efef;}.cls-2{fill:none;}</style></defs><path class="cls-1" d="M37.57,18.5576l-1.8755.15a1.0065,1.0065,0,1,0,.16,2.0066l1.8756-.15a1.0065,1.0065,0,0,0-.16-2.0066Z"/><path class="cls-1" d="M34.2013,25.8209a1.0065,1.0065,0,0,0-1.3056,1.5322l1.432,1.22a1.0065,1.0065,0,0,0,1.3057-1.5321Z"/><path class="cls-1" d="M33.252,13.9272l1.22-1.4321A1.0065,1.0065,0,0,0,32.94,11.1894l-1.22,1.4322a1.0065,1.0065,0,0,0,1.5322,1.3056Z"/><path class="cls-1" d="M25.69,12.0518a1.0064,1.0064,0,0,0,.9232-1.0834l-.15-1.8755a1.0065,1.0065,0,0,0-2.0066.16l.15,1.8756A1.0065,1.0065,0,0,0,25.69,12.0518Z"/><path class="cls-1" d="M18.5205,15.103a1.0065,1.0065,0,1,0,1.3056-1.5321l-1.4321-1.22a1.0065,1.0065,0,0,0-1.3056,1.5322Z"/><path class="cls-1" d="M29.5018,16.5079a3.205,3.205,0,0,0-4.5151.3608L10.1073,34.33a3.2062,3.2062,0,0,0,.36,4.5146l.2647.2256h.0005a3.2062,3.2062,0,0,0,4.5151-.36L30.1268,21.2481a3.2062,3.2062,0,0,0-.36-4.5146ZM13.725,37.4127a1.2037,1.2037,0,0,1-1.6954.1348l-.2651-.2256a1.2041,1.2041,0,0,1-.1348-1.6953L22.5448,22.8177,24.64,24.6033ZM28.6044,19.9513l-2.3368,2.7423L24.1722,20.908l2.3369-2.7424a1.2023,1.2023,0,0,1,1.6954-.1352l.2651.2256A1.2041,1.2041,0,0,1,28.6044,19.9513Z"/><rect class="cls-2" x="0.0188" y="0.0011" width="48" height="48"/></svg>