<svg id="Layer_1" data-name="Layer 1" xmlns="http://www.w3.org/2000/svg" width="48" height="48" viewBox="0 0 48 48"><defs><style>.cls-1{fill:#f0efef;}.cls-2{fill:none;}</style></defs><path class="cls-1" d="M13.398,11.0508a2.462,2.462,0,1,0-2.462,2.4629A2.4648,2.4648,0,0,0,13.398,11.0508Zm-2.462.9629a.9624.9624,0,1,1,.962-.9629A.9635.9635,0,0,1,10.936,12.0137Z"/><path class="cls-1" d="M26.2515,8.5889a2.4624,2.4624,0,1,0,2.4619,2.4619A2.465,2.465,0,0,0,26.2515,8.5889Zm0,3.4248a.9624.9624,0,1,1,.9619-.9629A.9636.9636,0,0,1,26.2515,12.0137Z"/><path class="cls-1" d="M15.6685,12.0508h5.85a1,1,0,0,0,0-2h-5.85a1,1,0,0,0,0,2Z"/><path class="cls-1" d="M13.398,26.3662a2.462,2.462,0,1,0-2.462,2.4629A2.4648,2.4648,0,0,0,13.398,26.3662Zm-3.4239,0a.962.962,0,1,1,.9619.9629A.9632.9632,0,0,1,9.9741,26.3662Z"/><path class="cls-1" d="M15.6685,27.3662h5.08v4.8506a1,1,0,0,0,2,0V26.3662a.9994.9994,0,0,0-1-1,.939.939,0,0,0-.1147.0231.9368.9368,0,0,0-.1148-.0231h-5.85a1,1,0,0,0,0,2Z"/><path class="cls-1" d="M9.936,15.7832v5.8506a1,1,0,0,0,2,0V15.7832a1,1,0,0,0-2,0Z"/><path class="cls-1" d="M37.064,19.1719a2.4624,2.4624,0,1,0,2.4619,2.4619A2.465,2.465,0,0,0,37.064,19.1719Zm0,3.4248a.9624.9624,0,1,1,.9619-.9629A.9636.9636,0,0,1,37.064,22.5967Z"/><path class="cls-1" d="M32.3315,20.6338h-5.08V15.7832a1,1,0,0,0-2,0v5.8506a.9994.9994,0,0,0,1,1,.939.939,0,0,0,.1147-.0231.9368.9368,0,0,0,.1148.0231h5.85a1,1,0,0,0,0-2Z"/><path class="cls-1" d="M21.7485,34.4863a2.4624,2.4624,0,1,0,2.4629,2.4629A2.465,2.465,0,0,0,21.7485,34.4863Zm0,3.4248a.9624.9624,0,1,1,.9629-.9619A.9632.9632,0,0,1,21.7485,37.9111Z"/><path class="cls-1" d="M37.064,34.4863a2.4624,2.4624,0,1,0,2.4619,2.4629A2.4652,2.4652,0,0,0,37.064,34.4863Zm0,3.4248a.9624.9624,0,1,1,.9619-.9619A.9633.9633,0,0,1,37.064,37.9111Z"/><path class="cls-1" d="M32.3315,35.9492h-5.85a1,1,0,0,0,0,2h5.85a1,1,0,0,0,0-2Z"/><path class="cls-1" d="M38.064,32.2168V26.3662a1,1,0,0,0-2,0v5.8506a1,1,0,0,0,2,0Z"/><rect class="cls-2" x="0.0149" y="0.0011" width="48" height="48"/></svg>