<svg id="Layer_1" data-name="Layer 1" xmlns="http://www.w3.org/2000/svg" width="48" height="48" viewBox="0 0 48 48"><defs><style>.cls-1{fill:#f0efef;}.cls-2{fill:none;}</style></defs><path class="cls-1" d="M38.3549,12.5334A3.7265,3.7265,0,0,0,37.1,10.4973a3.1229,3.1229,0,0,0-4.3775-.0229l-10.9406,12.85-3.1366,3.6752a5.6774,5.6774,0,0,0-.8007-.0167A5.74,5.74,0,0,0,12.872,30.699a22.1345,22.1345,0,0,1-2.5191,5.01l-.7739,1.086,1.26.4384a20.1821,20.1821,0,0,0,6.4506,1.1729,9.1762,9.1762,0,0,0,3.4512-.57l.0122-.0054a5.3109,5.3109,0,0,0,2.66-3.02,6.0051,6.0051,0,0,0,.2887-3.4172l2.53-2.957.0019.0016.6735-.7911.6248-.73-.0017-.0015L37.8324,14.8137A2.6392,2.6392,0,0,0,38.3549,12.5334ZM21.5443,34.0989a3.3576,3.3576,0,0,1-1.5776,1.893c-1.5542.6431-4.4063.521-7.2437-.2641a26.0746,26.0746,0,0,0,2.023-4.3306,3.7292,3.7292,0,0,1,3.2192-2.418,3.2882,3.2882,0,0,1,2.26.67l.186.1128a3.4706,3.4706,0,0,1,1.0923,1.3237A3.9008,3.9008,0,0,1,21.5443,34.0989Zm1.3736-4.8658a11.7063,11.7063,0,0,0-.9229-.8979,11.9979,11.9979,0,0,0-1.1226-.8648l1.773-2.0771L23.95,26.5005l.7563.6419ZM36.309,13.5183,26.0048,25.6208l-.907-.7694-1.1549-.98L34.246,11.77c.251-.294.9707-.2491,1.56.2524a1.7428,1.7428,0,0,1,.5923.9268A.6869.6869,0,0,1,36.309,13.5183Z"/><rect class="cls-2" x="0.0169" y="0.0011" width="48" height="48"/></svg>