<svg id="Layer_1" data-name="Layer 1" xmlns="http://www.w3.org/2000/svg" width="48" height="48" viewBox="0 0 48 48"><defs><style>.cls-1{fill:#fff;}.cls-2{fill:#dc1d44;}</style></defs><polygon class="cls-1" points="42 41.378 13.457 41.378 13.457 30.463 30.539 30.399 30.495 13.823 42 13.823 42 41.378"/><path class="cls-2" d="M29.3122,9.4109V6.6223H26.4251v.9736H8.8872V6.6223H6V9.4109H7.0228V26.3414H6V29.13H8.8872v-.9735H26.4251V29.13h2.8871V26.3414H28.2894V9.4109ZM27.4479,26.3414H26.4251v.9736H8.8872v-.9736H7.8677L7.8645,9.4109H8.8872V8.4374H26.4251v.9735h1.0228Z"/><path class="cls-1" d="M25.5325,25.4806H13.4574V23.368a9.5435,9.5435,0,0,1,9.5418-9.5453h2.5333Z"/></svg>