<svg id="Layer_1" data-name="Layer 1" xmlns="http://www.w3.org/2000/svg" width="48" height="48" viewBox="0 0 48 48"><defs><style>.cls-1{fill:#f0efef;}.cls-2{fill:none;}</style></defs><path class="cls-1" d="M36.88,8.6863H11.12a2.0027,2.0027,0,0,0-2,2V30.9471a2.0027,2.0027,0,0,0,2,2h2.9v4.37a2,2,0,0,0,3.417,1.4063l5.7764-5.7764H36.88a2.0027,2.0027,0,0,0,2-2V10.6863A2.0027,2.0027,0,0,0,36.88,8.6863Zm0,22.2608H22.3856l-6.3653,6.37v-6.37h-4.9V10.6863l25.76.003Z"/><path class="cls-1" d="M16.9324,18.742H31.0692a1,1,0,1,0,0-2H16.9324a1,1,0,0,0,0,2Z"/><path class="cls-1" d="M16.9324,24.7625h8.4112a1,1,0,0,0,0-2H16.9324a1,1,0,0,0,0,2Z"/><path class="cls-1" d="M31.0692,22.7625h-1.794a1,1,0,0,0,0,2h1.794a1,1,0,1,0,0-2Z"/><rect class="cls-2" x="0.0008" y="0.0011" width="48" height="48"/></svg>