<?xml version="1.0" encoding="utf-8"?>
<!-- Generator: Adobe Illustrator 24.2.3, SVG Export Plug-In . SVG Version: 6.00 Build 0)  -->
<svg version="1.1" id="Layer_1" xmlns="http://www.w3.org/2000/svg" xmlns:xlink="http://www.w3.org/1999/xlink" x="0px" y="0px"
	 viewBox="0 0 48 48" style="enable-background:new 0 0 48 48;" xml:space="preserve">
<style type="text/css">
	.st0{display:none;}
	.st1{display:inline;}
	.st2{fill:#525353;}
	.st3{fill:none;stroke:#DBDBDB;stroke-width:5.000000e-02;stroke-miterlimit:10;}
	.st4{opacity:0.5;fill:#F6D2D6;stroke:#F4B8C0;stroke-width:0.25;stroke-miterlimit:10;}
	.st5{display:inline;fill:none;}
	.st6{fill:none;stroke:#000000;stroke-width:2;stroke-linecap:round;stroke-miterlimit:10;}
	.st7{fill:none;stroke:#000000;stroke-width:2;stroke-linecap:round;stroke-linejoin:round;stroke-miterlimit:10;}
	.st8{fill:none;stroke:#000000;stroke-width:2;stroke-miterlimit:10;}
	.st9{fill:none;stroke:#000000;stroke-width:1.5;stroke-miterlimit:10;}
	.st10{fill:none;stroke:#000000;stroke-linecap:round;stroke-miterlimit:10;}
	.st11{fill:#606060;stroke:#000000;stroke-width:2;stroke-miterlimit:10;}
	.st12{fill:#606060;}
	.st13{fill:#F0EFEF;}
	.st14{fill:#4285F4;}
	.st15{fill:#FFFFFF;}
	.st16{fill:#0F9D58;}
	.st17{fill:#FFAA00;}
	.st18{fill:#D93025;}
	.st19{fill:#8C15FF;}
	.st20{fill:#474747;}
	.st21{fill:none;}
	.st22{fill:none;stroke:#000000;stroke-width:3;stroke-linecap:round;stroke-miterlimit:10;}
</style>
<rect x="0" class="st21" width="48" height="48"/>
<g>
	<g>
		<path class="st13" d="M37.3,41.4H10.7c-1.4,0-2.6-1.2-2.6-2.8V20.5c0-1.5,1.2-2.8,2.6-2.8H17c0.6,0,1,0.4,1,1s-0.4,1-1,1h-6.3
			c-0.3,0-0.6,0.4-0.6,0.8v18.1c0,0.4,0.3,0.8,0.6,0.8h26.6c0.3,0,0.6-0.4,0.6-0.8V20.5c0-0.4-0.3-0.8-0.6-0.8H31c-0.6,0-1-0.4-1-1
			s0.4-1,1-1h6.3c1.4,0,2.6,1.2,2.6,2.8v18.1C39.9,40.1,38.7,41.4,37.3,41.4z"/>
	</g>
	<g>
		<g>
			<path class="st13" d="M24,29.3c-0.5,0-0.9-0.2-1.3-0.5l-4.4-4.4c-0.4-0.4-0.4-1,0-1.4s1-0.4,1.4,0l4.2,4.2l4.2-4.2
				c0.4-0.4,1-0.4,1.4,0c0.4,0.4,0.4,1,0,1.4l-4.4,4.4C24.9,29.1,24.5,29.3,24,29.3z"/>
		</g>
		<g>
			<path class="st13" d="M24,29.1c-0.6,0-1-0.4-1-1V7.6c0-0.6,0.4-1,1-1s1,0.4,1,1v20.5C25,28.7,24.6,29.1,24,29.1z"/>
		</g>
	</g>
</g>
</svg>
