<svg xmlns="http://www.w3.org/2000/svg" width="48" height="48" viewBox="0 0 48 48">
  <defs>
    <style>.cls-1{fill:#f0efef;}</style>
  </defs>
  <g id="Layer_2" data-name="Layer 2">
    <g id="Layer_1-2" data-name="Layer 1">
      <path class="cls-1" d="M28.41,30.55H2.55A2.55,2.55,0,0,1,0,28V2.55A2.55,2.55,0,0,1,2.55,0H16.92a1,1,0,0,1,0,2H2.55A.55.55,0,0,0,2,2.55V28a.55.55,0,0,0,.55.55H28.41A.55.55,0,0,0,29,28V13.85a1,1,0,1,1,2,0V28A2.55,2.55,0,0,1,28.41,30.55Z"/>
      <path class="cls-1" d="M16.47,15.48a1,1,0,0,1-.7-.29,1,1,0,0,1,0-1.41L29.25.29a1,1,0,0,1,1.41,0,1,1,0,0,1,0,1.42L17.18,15.19A1,1,0,0,1,16.47,15.48Z"/>
      <path class="cls-1" d="M29.75,2H22.57a1,1,0,0,1,0-2h7.18a1,1,0,0,1,0,2Z"/>
      <path class="cls-1" d="M30,9.42a1,1,0,0,1-1-1V1.24a1,1,0,1,1,2,0V8.42A1,1,0,0,1,30,9.42Z"/>
    </g>
  </g>
</svg>
