<svg id="Layer_1" data-name="Layer 1" xmlns="http://www.w3.org/2000/svg" width="48" height="48" viewBox="0 0 48 48"><defs><style>.cls-1{fill:#f0efef;}.cls-2{fill:none;}</style></defs><path class="cls-1" d="M20.0525,38.9639a.9983.9983,0,0,0,1.03-.0576l6.96-4.74a.9979.9979,0,0,0,.437-.8262V26.4219l6.0918-10.8213,2.92-5.19A1,1,0,0,0,36.62,8.92H11.38a1,1,0,0,0-.8716,1.49l2.92,5.19L19.52,26.4219V38.08A1,1,0,0,0,20.0525,38.9639ZM13.09,10.92H34.91L33.115,14.11H14.885Zm2.92,5.19H31.99l-5.3813,9.56a1.0011,1.0011,0,0,0-.1285.49v6.65L21.52,36.19V26.16a1.0021,1.0021,0,0,0-.1284-.49Z"/><rect class="cls-2" x="0.0169" width="48" height="48"/></svg>