<svg id="Layer_1" data-name="Layer 1" xmlns="http://www.w3.org/2000/svg" width="48" height="48" viewBox="0 0 48 48"><defs><style>.cls-1{fill:#f0efef;}.cls-2{fill:none;}</style></defs><path class="cls-1" d="M40.185,22.995h-5.21v-6.73a1.8715,1.8715,0,0,0-1.86-1.87h-8.11V7.815a1.01,1.01,0,1,0-2,0v6.58h-8.11a1.865,1.865,0,0,0-1.86,1.87v6.73H7.815a1.01,1.01,0,1,0,0,2h5.22v6.73a1.865,1.865,0,0,0,1.86,1.87h8.11v6.59a1.01,1.01,0,1,0,2,0v-6.59h8.11a1.8715,1.8715,0,0,0,1.86-1.87v-6.73h5.21a1.01,1.01,0,1,0,0-2Zm-25.15,8.6V27.4925l4.4977-5.7091L24.975,31.595h-9.94Zm12.2275,0-2.3482-4.2332,3.12-3.4544,4.94,4.7918V31.595Zm5.7125-5.6819-3.76-3.6463a1.7142,1.7142,0,0,0-2.2422-.1416l-3.082,3.3922-2.8438-5.1266a1.6958,1.6958,0,0,0-1.34-.915,1.6146,1.6146,0,0,0-1.4116.6465L15.035,24.26V16.395h17.94v9.5181Z"/><rect class="cls-2" x="0.0169" y="-0.0926" width="48" height="48"/></svg>