<?xml version="1.0" encoding="utf-8"?>
<!-- Generator: Adobe Illustrator 24.2.3, SVG Export Plug-In . SVG Version: 6.00 Build 0)  -->
<svg version="1.1" id="Layer_1" xmlns="http://www.w3.org/2000/svg" xmlns:xlink="http://www.w3.org/1999/xlink" x="0px" y="0px"
	 viewBox="0 0 48 48" style="enable-background:new 0 0 48 48;" xml:space="preserve">
<style type="text/css">
	.st0{display:none;}
	.st1{display:inline;}
	.st2{fill:#525353;}
	.st3{fill:none;stroke:#DBDBDB;stroke-width:5.000000e-02;stroke-miterlimit:10;}
	.st4{opacity:0.5;fill:#F6D2D6;stroke:#F4B8C0;stroke-width:0.25;stroke-miterlimit:10;}
	.st5{display:inline;fill:none;}
	.st6{fill:none;stroke:#000000;stroke-width:2;stroke-linecap:round;stroke-miterlimit:10;}
	.st7{fill:none;stroke:#000000;stroke-width:2;stroke-linecap:round;stroke-linejoin:round;stroke-miterlimit:10;}
	.st8{fill:none;stroke:#000000;stroke-width:2;stroke-miterlimit:10;}
	.st9{fill:none;stroke:#000000;stroke-width:1.5;stroke-miterlimit:10;}
	.st10{fill:none;stroke:#000000;stroke-linecap:round;stroke-miterlimit:10;}
	.st11{fill:#606060;stroke:#000000;stroke-width:2;stroke-miterlimit:10;}
	.st12{fill:#606060;}
	.st13{fill:#F0EFEF;}
	.st14{fill:#4285F4;}
	.st15{fill:#FFFFFF;}
	.st16{fill:#0F9D58;}
	.st17{fill:#FFAA00;}
	.st18{fill:#D93025;}
	.st19{fill:#8C15FF;}
	.st20{fill:#474747;}
	.st21{fill:none;}
	.st22{fill:none;stroke:#000000;stroke-width:3;stroke-linecap:round;stroke-miterlimit:10;}
</style>
<rect x="0" y="-0.1" class="st21" width="48" height="48"/>
<g>
	<g>
		<path class="st13" d="M19.5,22.5h-7.8c-1.7,0-3-1.3-3-3v-7.8c0-1.7,1.3-3,3-3h7.8c1.7,0,3,1.3,3,3v7.8
			C22.5,21.2,21.2,22.5,19.5,22.5z M11.7,10.7c-0.6,0-1,0.4-1,1v7.8c0,0.6,0.4,1,1,1h7.8c0.6,0,1-0.4,1-1v-7.8c0-0.6-0.4-1-1-1H11.7
			z"/>
	</g>
	<g>
		<path class="st13" d="M36.3,22.5h-7.8c-1.7,0-3-1.3-3-3v-7.8c0-1.7,1.3-3,3-3h7.8c1.7,0,3,1.3,3,3v7.8
			C39.3,21.2,38,22.5,36.3,22.5z M28.5,10.7c-0.6,0-1,0.4-1,1v7.8c0,0.6,0.4,1,1,1h7.8c0.6,0,1-0.4,1-1v-7.8c0-0.6-0.4-1-1-1H28.5z"
			/>
	</g>
	<g>
		<path class="st13" d="M19.5,39.3h-7.8c-1.7,0-3-1.3-3-3v-7.8c0-1.7,1.3-3,3-3h7.8c1.7,0,3,1.3,3,3v7.8
			C22.5,38,21.2,39.3,19.5,39.3z M11.7,27.5c-0.6,0-1,0.4-1,1v7.8c0,0.6,0.4,1,1,1h7.8c0.6,0,1-0.4,1-1v-7.8c0-0.6-0.4-1-1-1H11.7z"
			/>
	</g>
	<g>
		<path class="st13" d="M36.3,39.3h-7.8c-1.7,0-3-1.3-3-3v-7.8c0-1.7,1.3-3,3-3h7.8c1.7,0,3,1.3,3,3v7.8C39.3,38,38,39.3,36.3,39.3z
			 M28.5,27.5c-0.6,0-1,0.4-1,1v7.8c0,0.6,0.4,1,1,1h7.8c0.6,0,1-0.4,1-1v-7.8c0-0.6-0.4-1-1-1H28.5z"/>
	</g>
</g>
</svg>
