<svg id="Layer_1" data-name="Layer 1" xmlns="http://www.w3.org/2000/svg" width="48" height="48" viewBox="0 0 48 48"><defs><style>.cls-1{fill:#f0efef;}</style></defs><path class="cls-1" d="M23.64,27.58a1.43,1.43,0,0,1-1.42-1.65,5,5,0,0,1,.29-1,7,7,0,0,1,1.65-2.19A13.45,13.45,0,0,0,25.72,21a3,3,0,0,0,.5-1.67,2.53,2.53,0,0,0-.58-1.8,2.27,2.27,0,0,0-1.73-.63,2.49,2.49,0,0,0-1.74.61,1.93,1.93,0,0,0-.51.75,1.42,1.42,0,0,1-1.32.91h-.19a1.44,1.44,0,0,1-1.32-2A4.16,4.16,0,0,1,20,15.65a5.77,5.77,0,0,1,3.95-1.3,5.69,5.69,0,0,1,4,1.29,4.64,4.64,0,0,1,1.42,3.6,5.89,5.89,0,0,1-1.92,4.05l-1.55,1.53a3.41,3.41,0,0,0-.75,1.65,1.43,1.43,0,0,1-1.43,1.11Zm-1.28,4.87a1.53,1.53,0,0,1,.4-1.11,1.46,1.46,0,0,1,1.1-.42,1.42,1.42,0,0,1,1.1.44,1.48,1.48,0,0,1,.41,1.09A1.53,1.53,0,0,1,25,33.51a1.48,1.48,0,0,1-1.12.42,1.45,1.45,0,0,1-1.12-.42A1.52,1.52,0,0,1,22.36,32.45Z"/><path class="cls-1" d="M24,43.42a18.61,18.61,0,1,1,15.28-8,19.2,19.2,0,0,0,1.25,2.12c1.33,2.06,2.21,3.42,1.3,4.34h0c-.81.8-2.12.18-4.51-.95a22.26,22.26,0,0,0-2.43-1.05A18.49,18.49,0,0,1,24,43.42ZM24,8.19A16.63,16.63,0,1,0,34,38.12c.78-.58,1.8-.13,4.24,1,.4.19.91.44,1.4.65-.24-.4-.52-.82-.73-1.14-1.28-2-2.05-3.19-1.39-4.12A16.62,16.62,0,0,0,24,8.19Z"/></svg>