<svg id="Layer_1" data-name="Layer 1" xmlns="http://www.w3.org/2000/svg" width="48" height="48" viewBox="0 0 48 48"><defs><style>.cls-1{fill:#f0efef;}.cls-2{fill:none;}</style></defs><path class="cls-1" d="M25.4813,8.1138a15.9025,15.9025,0,0,0-15.77,14.0419L8.386,20.6372a1,1,0,1,0-1.5068,1.3145L9.58,25.0474a1.45,1.45,0,0,0,2.207.0009L14.49,21.9517a1,1,0,1,0-1.5069-1.3145l-1.2348,1.415a13.8755,13.8755,0,1,1,3.4526,11.2735,1,1,0,1,0-1.4844,1.34A15.8836,15.8836,0,1,0,25.4813,8.1138Z"/><path class="cls-1" d="M25.4813,14.647a1,1,0,0,0-1,1V26.0815l4.1167,3.9551a1,1,0,1,0,1.3857-1.4414L26.4813,25.23V15.647A1,1,0,0,0,25.4813,14.647Z"/><rect class="cls-2" x="0.0188" y="0.0011" width="48" height="48"/></svg>