<?xml version="1.0" encoding="utf-8"?>
<!-- Generator: Adobe Illustrator 24.2.3, SVG Export Plug-In . SVG Version: 6.00 Build 0)  -->
<svg version="1.1" id="Layer_1" xmlns="http://www.w3.org/2000/svg" xmlns:xlink="http://www.w3.org/1999/xlink" x="0px" y="0px"
	 viewBox="0 0 48 48" style="enable-background:new 0 0 48 48;" xml:space="preserve">
<style type="text/css">
	.st0{fill:#0F9D58;}
	.st1{fill:#4285F4;}
	.st2{fill:#8C15FF;}
	.st3{fill:#D93025;}
	.st4{display:none;}
	.st5{display:inline;}
	.st6{fill:#525353;}
	.st7{fill:none;stroke:#DBDBDB;stroke-width:5.000000e-02;stroke-miterlimit:10;}
	.st8{opacity:0.5;fill:#F6D2D6;stroke:#F4B8C0;stroke-width:0.25;stroke-miterlimit:10;}
	.st9{display:inline;fill:none;}
	.st10{fill:none;stroke:#000000;stroke-width:2;stroke-linecap:round;stroke-miterlimit:10;}
	.st11{fill:none;stroke:#000000;stroke-width:2;stroke-linecap:round;stroke-linejoin:round;stroke-miterlimit:10;}
	.st12{fill:none;stroke:#000000;stroke-width:2;stroke-miterlimit:10;}
	.st13{fill:none;stroke:#000000;stroke-width:1.5;stroke-miterlimit:10;}
	.st14{fill:none;stroke:#000000;stroke-linecap:round;stroke-miterlimit:10;}
	.st15{fill:#606060;stroke:#000000;stroke-width:2;stroke-miterlimit:10;}
	.st16{fill:#606060;}
	.st17{fill:#F0EFEF;}
	.st18{fill:#FFFFFF;}
	.st19{fill:#FFAA00;}
	.st20{fill:none;}
	.st21{fill:none;stroke:#000000;stroke-width:3;stroke-linecap:round;stroke-miterlimit:10;}
</style>
<path class="st19" d="M40,9.9v28.1c0,1.1-0.9,1.9-1.9,1.9H9.9C8.9,40,8,39.1,8,38.1V9.9C8,8.9,8.9,8,9.9,8h28.1
	C39.1,8,40,8.9,40,9.9z"/>
<g>
	<path class="st18" d="M40,24.5v3l-6.6-7.4L22.8,32.8c-0.2,0.2-0.5,0.3-0.8,0.4c-0.3,0-0.6-0.1-0.8-0.3l-6.2-6.8L8,32.3v-2.7
		l6.5-5.8c0.4-0.4,1-0.3,1.4,0.1l6.1,6.7l10.6-12.7c0.2-0.2,0.5-0.4,0.8-0.4c0.3,0,0.6,0.1,0.8,0.3L40,24.5z"/>
</g>
<g>
	<path class="st18" d="M21.4,21.1c-2,0-3.6-1.6-3.6-3.6c0-2,1.6-3.6,3.6-3.6c2,0,3.6,1.6,3.6,3.6C25,19.5,23.4,21.1,21.4,21.1z
		 M21.4,15.9c-0.9,0-1.6,0.7-1.6,1.6s0.7,1.6,1.6,1.6s1.6-0.7,1.6-1.6S22.3,15.9,21.4,15.9z"/>
</g>
<rect x="0" class="st20" width="48" height="48"/>
</svg>
