<svg id="Layer_1" data-name="Layer 1" xmlns="http://www.w3.org/2000/svg" width="48" height="48" viewBox="0 0 48 48"><defs><style>.cls-1{fill:#dc1d46;}.cls-2{fill:none;}</style></defs><path class="cls-1" d="M25.4478,8.156a2.0489,2.0489,0,0,0-2.8956,0l-3.2954,3.2959a2.0473,2.0473,0,0,0,1.4478,3.4951H23V17.91a6.2077,6.2077,0,0,1,2,0V14.947h2.2954a2.0473,2.0473,0,0,0,1.4478-3.4951Zm-4.7769,4.71L23.9663,9.57a.0483.0483,0,0,1,.0674,0l3.2617,3.3769Z"/><path class="cls-1" d="M27.2954,33.0544H25V30.0912a6.2077,6.2077,0,0,1-2,0v2.9632H20.7046A2.0474,2.0474,0,0,0,19.2568,36.55l3.2954,3.2949a2.05,2.05,0,0,0,2.8956,0L28.7432,36.55a2.0474,2.0474,0,0,0-1.4478-3.4952ZM24.0337,38.43a.05.05,0,0,1-.0674,0l-3.2617-3.376,6.6245.0811Z"/><path class="cls-1" d="M39.8442,22.5525l-3.2954-3.2949a2.047,2.047,0,0,0-3.4951,1.4472v2.2959H30.0906a6.2048,6.2048,0,0,1,0,2h2.9631v2.2959a2.0467,2.0467,0,0,0,3.4951,1.4473l3.2954-3.2959A2.05,2.05,0,0,0,39.8442,22.5525ZM38.43,24.0339l-3.3765,3.2627.0811-6.625,3.2954,3.295A.0477.0477,0,0,1,38.43,24.0339Z"/><path class="cls-1" d="M14.9463,23.0007V20.7048a2.047,2.047,0,0,0-3.4951-1.4472L8.1558,22.5525a2.05,2.05,0,0,0,0,2.8955l3.2954,3.2959a2.0471,2.0471,0,0,0,3.4951-1.4473V25.0007h2.9631a6.2048,6.2048,0,0,1,0-2ZM12.8652,27.33,9.57,24.0339a.0477.0477,0,0,1,0-.0673l3.3765-3.2618Z"/><path class="cls-1" d="M24,28.0828a4.0836,4.0836,0,1,0-2.8862-1.1963A4.0534,4.0534,0,0,0,24,28.0828Zm-1.4722-5.5547a2.082,2.082,0,1,1,2.9444,2.9443,2.1309,2.1309,0,0,1-2.9444,0,2.0819,2.0819,0,0,1,0-2.9443Z"/><rect class="cls-2" x="0.0188" y="-0.0926" width="48" height="48"/></svg>