<svg id="Layer_1" data-name="Layer 1" xmlns="http://www.w3.org/2000/svg" width="48" height="48" viewBox="0 0 48 48"><defs><style>.cls-1{fill:#f0efef;}.cls-2{fill:none;}</style></defs><path class="cls-1" d="M24.44,18.46a2.0094,2.0094,0,0,0-3.4571,1.3764l-.1709,19.9209a1.991,1.991,0,0,0,1.3086,1.9,2.0242,2.0242,0,0,0,.711.1294,1.9941,1.9941,0,0,0,1.5224-.7114l4.8311-5.6826,7.4072.8091a2.01,2.01,0,0,0,1.666-3.3921ZM36.8087,34.2138l-7.4062-.8091a2.0158,2.0158,0,0,0-1.751.6968l-4.84,5.6728.1866-19.9272L36.8224,34.2143A.0674.0674,0,0,1,36.8087,34.2138Z"/><path class="cls-1" d="M18.8867,31.123l.02-2.05a10.6326,10.6326,0,1,1,13.54-10.23,10.3225,10.3225,0,0,1-.86,4.16l1.49,1.54a12.4231,12.4231,0,0,0,1.37-5.7,12.635,12.635,0,1,0-15.56,12.28Z"/><rect class="cls-2" x="0.0149" y="0.0011" width="48" height="48"/></svg>