<?xml version="1.0" encoding="utf-8"?>
<!-- Generator: Adobe Illustrator 24.2.3, SVG Export Plug-In . SVG Version: 6.00 Build 0)  -->
<svg version="1.1" id="Layer_1" xmlns="http://www.w3.org/2000/svg" xmlns:xlink="http://www.w3.org/1999/xlink" x="0px" y="0px"
	 viewBox="0 0 48 48" style="enable-background:new 0 0 48 48;" xml:space="preserve">
<style type="text/css">
	.st0{fill:#0F9D58;}
	.st1{fill:#4285F4;}
	.st2{fill:#8C15FF;}
	.st3{fill:#D93025;}
	.st4{display:none;}
	.st5{display:inline;}
	.st6{fill:#525353;}
	.st7{fill:none;stroke:#DBDBDB;stroke-width:5.000000e-02;stroke-miterlimit:10;}
	.st8{opacity:0.5;fill:#F6D2D6;stroke:#F4B8C0;stroke-width:0.25;stroke-miterlimit:10;}
	.st9{display:inline;fill:none;}
	.st10{fill:none;stroke:#000000;stroke-width:2;stroke-linecap:round;stroke-miterlimit:10;}
	.st11{fill:none;stroke:#000000;stroke-width:2;stroke-linecap:round;stroke-linejoin:round;stroke-miterlimit:10;}
	.st12{fill:none;stroke:#000000;stroke-width:2;stroke-miterlimit:10;}
	.st13{fill:none;stroke:#000000;stroke-width:1.5;stroke-miterlimit:10;}
	.st14{fill:none;stroke:#000000;stroke-linecap:round;stroke-miterlimit:10;}
	.st15{fill:#606060;stroke:#000000;stroke-width:2;stroke-miterlimit:10;}
	.st16{fill:#606060;}
	.st17{fill:#F0EFEF;}
	.st18{fill:#FFFFFF;}
	.st19{fill:#FFAA00;}
	.st20{fill:none;}
	.st21{fill:none;stroke:#000000;stroke-width:3;stroke-linecap:round;stroke-miterlimit:10;}
</style>
<rect x="0" class="st20" width="48" height="48"/>
<g>
	<path class="st17" d="M36.2,25.6c-0.6,0-1,0.4-1,1v10.2c0,0.3-0.3,0.6-0.6,0.6H11.4c-0.3,0-0.6-0.3-0.6-0.6V13.5
		c0-0.3,0.3-0.6,0.6-0.6h10.2c0.6,0,1-0.4,1-1s-0.4-1-1-1H11.4c-1.4,0-2.6,1.2-2.6,2.6v23.2c0,1.4,1.2,2.6,2.6,2.6h23.2
		c1.4,0,2.6-1.2,2.6-2.6V26.6C37.2,26,36.7,25.6,36.2,25.6z"/>
	<path class="st17" d="M37.7,9.7c-1.6-1.3-3.7-1.3-4.8,0L20.3,24.5c0,0.1-0.1,0.1-0.1,0.2c0,0-0.1,0.1-0.1,0.1L18.3,30
		c-0.2,0.7,0,1.4,0.5,1.9c0.3,0.3,0.7,0.4,1.1,0.4c0.3,0,0.6-0.1,0.8-0.2l4.9-2.7c0.1,0,0.1-0.1,0.2-0.2c0,0,0.1,0,0.1-0.1l0.4-0.5
		c0,0,0,0,0,0l10.7-12.5c0,0,0,0,0,0c0,0,0,0,0,0l1.5-1.8c0.6-0.7,0.8-1.6,0.6-2.5C39,11.1,38.5,10.3,37.7,9.7z M25.1,27.2L22.4,25
		l9.8-11.6l2.6,2.2L25.1,27.2z M36.5,11.2c0.4,0.3,0.6,0.7,0.7,1.2c0,0.2,0.1,0.5-0.1,0.8l-0.9,1l-2.6-2.2l0.9-1
		C34.8,10.5,35.7,10.5,36.5,11.2z M20.4,30.1l1.1-3.3l1.9,1.6L20.4,30.1z"/>
</g>
</svg>
