<svg id="Layer_1" data-name="Layer 1" xmlns="http://www.w3.org/2000/svg" width="48" height="48" viewBox="0 0 48 48"><defs><style>.cls-1{fill:#f0efef;}.cls-2{fill:none;}</style></defs><path class="cls-1" d="M16.8281,38.4307a2.2934,2.2934,0,0,1-.8008-.1455,2.2451,2.2451,0,0,1-1.476-2.1431l.2143-24.9756a2.2661,2.2661,0,0,1,3.898-1.5522L35.9873,27.606A2.2657,2.2657,0,0,1,34.1094,31.43L24.8232,30.416a.2662.2662,0,0,0-.2324.0923l-6.0464,7.12A2.2445,2.2445,0,0,1,16.8281,38.4307ZM17.04,10.9175a.2872.2872,0,0,0-.1065.022.2491.2491,0,0,0-.1675.2446l-.2143,24.9751a.2455.2455,0,0,0,.1733.2514.2481.2481,0,0,0,.2954-.0771l6.0469-7.1206a2.2774,2.2774,0,0,1,1.9741-.7852l9.2852,1.0142a.266.266,0,0,0,.2207-.4487L17.2231,11.002A.2489.2489,0,0,0,17.04,10.9175Z"/><rect class="cls-2" x="0.0188" width="48" height="48"/></svg>