<svg id="Layer_1" data-name="Layer 1" xmlns="http://www.w3.org/2000/svg" width="48" height="48" viewBox="0 0 48 48"><defs><style>.cls-1{fill:#f0efef;}.cls-2{fill:none;}</style></defs><path class="cls-1" d="M15.3492,41.4622A3.9112,3.9112,0,1,1,19.26,37.5511,3.9157,3.9157,0,0,1,15.3492,41.4622Zm0-5.8223A1.9112,1.9112,0,1,0,17.26,37.5511,1.9135,1.9135,0,0,0,15.3492,35.64Z"/><path class="cls-1" d="M32.651,41.4622a3.9112,3.9112,0,1,1,3.9111-3.9111A3.9156,3.9156,0,0,1,32.651,41.4622Zm0-5.8223a1.9112,1.9112,0,1,0,1.9111,1.9112A1.9135,1.9135,0,0,0,32.651,35.64Z"/><path class="cls-1" d="M26.6754,38.5511H21.3248a1,1,0,0,1,0-2h5.3506a1,1,0,1,1,0,2Z"/><path class="cls-1" d="M34.6979,33.1136a1,1,0,0,1-.9356-1.3526l1.8848-5.0078a1,1,0,1,1,1.8711.7041l-1.8848,5.0078A1,1,0,0,1,34.6979,33.1136Z"/><path class="cls-1" d="M13.3014,33.1131a1,1,0,0,1-.9356-.6484l-1.8847-5.0079a1,1,0,1,1,1.8711-.7041l1.8847,5.0078a1,1,0,0,1-.9355,1.3526Z"/><path class="cls-1" d="M11.1168,25.4749a3.9611,3.9611,0,0,1-.8818-.1,3.9113,3.9113,0,1,1,4.1875-5.89h0a3.9125,3.9125,0,0,1-3.3057,5.99Zm-.0107-5.8242a1.9121,1.9121,0,1,0,1.623.8974l-.001-.0009a1.9183,1.9183,0,0,0-1.622-.8965Z"/><path class="cls-1" d="M23.9967,14.36a3.9072,3.9072,0,1,1,2.0713-.5962A3.9108,3.9108,0,0,1,23.9967,14.36Zm-.01-5.8223a1.9183,1.9183,0,1,0,.4307.0493A1.8988,1.8988,0,0,0,23.9869,8.5379Z"/><path class="cls-1" d="M14.3951,17.4656a1,1,0,0,1-.5322-1.8471l4.5332-2.8418a1,1,0,1,1,1.0625,1.6943l-4.5332,2.8418A.9947.9947,0,0,1,14.3951,17.4656Z"/><path class="cls-1" d="M36.8824,25.4749a3.9246,3.9246,0,1,1,.88-.1A3.9384,3.9384,0,0,1,36.8824,25.4749Zm.0118-5.8242a1.9328,1.9328,0,0,0-.4307.0488,1.9021,1.9021,0,1,0,.4307-.0488Z"/><path class="cls-1" d="M33.6061,17.4632a.9947.9947,0,0,1-.53-.1528l-4.5322-2.8438a1,1,0,0,1,1.0625-1.6943l4.5322,2.8437a1,1,0,0,1-.5322,1.8472Z"/><rect class="cls-2" x="0.0008" width="48" height="48"/></svg>