<svg id="Layer_1" data-name="Layer 1" xmlns="http://www.w3.org/2000/svg" width="48" height="48" viewBox="0 0 48 48"><defs><style>.cls-1{fill:none;}.cls-2{fill:#f0efef;}</style></defs><rect class="cls-1" width="48" height="48"/><path class="cls-2" d="M37.3156,10.6738a18.8309,18.8309,0,0,0-26.6313,26.63,18.4966,18.4966,0,0,0,3.586,2.8012,18.7161,18.7161,0,0,0,19.4536.0029,18.4873,18.4873,0,0,0,3.5917-2.8041h.001A18.8636,18.8636,0,0,0,37.3156,10.6738ZM15.2809,38.4258c-.1329-.0793-.261-.1676-.3918-.2509a9.272,9.272,0,0,1,2.5729-4.9592,9.2437,9.2437,0,0,1,15.6468,4.96c-.132.0841-.2612.1731-.3956.2532A16.9822,16.9822,0,0,1,15.2809,38.4258ZM35.93,35.9184c-.3492.3492-.717.6757-1.093.9908a11.2032,11.2032,0,0,0-21.6739,0c-.3755-.315-.743-.6413-1.0919-.9905a16.8707,16.8707,0,1,1,23.8588,0Z"/><path class="cls-2" d="M24.5325,12.6214a7.0858,7.0858,0,0,0-1.0661,14.1315c.1809.0134.36.02.5378.02a7.0858,7.0858,0,0,0,.5283-14.1516Zm-.9187,12.1772a5.1259,5.1259,0,0,1,.3818-10.2373c.1292,0,.2584.0048.39.0143a5.126,5.126,0,1,1-.7713,10.223Z"/></svg>