<?xml version="1.0" encoding="utf-8"?>
<!-- Generator: Adobe Illustrator 24.2.3, SVG Export Plug-In . SVG Version: 6.00 Build 0)  -->
<svg version="1.1" id="Layer_1" xmlns="http://www.w3.org/2000/svg" xmlns:xlink="http://www.w3.org/1999/xlink" x="0px" y="0px"
	 viewBox="0 0 48 48" style="enable-background:new 0 0 48 48;" xml:space="preserve">
<style type="text/css">
	.st0{display:none;}
	.st1{display:inline;}
	.st2{fill:#525353;}
	.st3{fill:none;stroke:#DBDBDB;stroke-width:5.000000e-02;stroke-miterlimit:10;}
	.st4{opacity:0.5;fill:#F6D2D6;stroke:#F4B8C0;stroke-width:0.25;stroke-miterlimit:10;}
	.st5{display:inline;fill:none;}
	.st6{fill:none;stroke:#000000;stroke-width:2;stroke-linecap:round;stroke-miterlimit:10;}
	.st7{fill:none;stroke:#000000;stroke-width:2;stroke-linecap:round;stroke-linejoin:round;stroke-miterlimit:10;}
	.st8{fill:none;stroke:#000000;stroke-width:2;stroke-miterlimit:10;}
	.st9{fill:none;stroke:#000000;stroke-width:1.5;stroke-miterlimit:10;}
	.st10{fill:none;stroke:#000000;stroke-linecap:round;stroke-miterlimit:10;}
	.st11{fill:#606060;stroke:#000000;stroke-width:2;stroke-miterlimit:10;}
	.st12{fill:#606060;}
	.st13{fill:#F0EFEF;}
	.st14{fill:#4285F4;}
	.st15{fill:#FFFFFF;}
	.st16{fill:#0F9D58;}
	.st17{fill:#FFAA00;}
	.st18{fill:#D93025;}
	.st19{fill:#8C15FF;}
	.st20{fill:#474747;}
	.st21{fill:none;}
	.st22{fill:none;stroke:#000000;stroke-width:3;stroke-linecap:round;stroke-miterlimit:10;}
</style>
<rect x="0" class="st21" width="48" height="48"/>
<g>
	<path class="st13" d="M35.3,7.4H12.7c-0.9,0-1.7,0.8-1.7,1.7v24.3v5.5v0.1c0,0.9,0.7,1.6,1.6,1.6h0.1h22.6h0.1
		c0.9,0,1.6-0.7,1.6-1.6v-0.1v-5.5V9.1C37,8.2,36.2,7.4,35.3,7.4z M35,38.6H13v-3.2h22V38.6z M13,33.4v-24h22v24H13z"/>
	<path class="st13" d="M22.9,37.5h2.2c0.3,0,0.5-0.2,0.5-0.5s-0.2-0.5-0.5-0.5h-2.2c-0.3,0-0.5,0.2-0.5,0.5S22.6,37.5,22.9,37.5z"/>
	<polygon class="st13" points="26.3,17.7 26.4,23.6 20.2,23.7 20.2,27.6 30.5,27.6 30.5,17.7 	"/>
	<path class="st13" d="M24.9,22.8v0.4h1v-1h-0.4v-6.1h0.4v-1h-1v0.4h-6.3v-0.4h-1v1h0.4v6.1h-0.4v1h1v-0.4H24.9z M18.2,16.1h0.4
		v-0.4h6.3v0.4h0.4v6.1h-0.4v0.4h-6.3v-0.4h-0.4V16.1z"/>
	<path class="st13" d="M24.6,17.7h-0.9c-1.9,0-3.4,1.5-3.4,3.4v0.8h4.4V17.7z"/>
</g>
</svg>
