<svg id="Layer_1" data-name="Layer 1" xmlns="http://www.w3.org/2000/svg" width="48" height="48" viewBox="0 0 48 48"><defs><style>.cls-1{fill:#f0efef;}.cls-2{fill:none;}</style></defs><path class="cls-1" d="M11.2734,15.5464a4.2732,4.2732,0,1,1,4.2735-4.273A4.2781,4.2781,0,0,1,11.2734,15.5464Zm0-6.5464a2.2732,2.2732,0,1,0,2.2735,2.2734A2.2759,2.2759,0,0,0,11.2734,9Z"/><path class="cls-1" d="M36.7275,15.5464A4.2732,4.2732,0,1,1,41,11.2734,4.2781,4.2781,0,0,1,36.7275,15.5464Zm0-6.5464A2.2732,2.2732,0,1,0,39,11.2734,2.2759,2.2759,0,0,0,36.7275,9Z"/><path class="cls-1" d="M29.5918,12.2734H18.4082a1,1,0,0,1,0-2H29.5918a1,1,0,0,1,0,2Z"/><path class="cls-1" d="M11.2734,41a4.2732,4.2732,0,1,1,4.2735-4.2734A4.2782,4.2782,0,0,1,11.2734,41Zm0-6.5464a2.2732,2.2732,0,1,0,2.2735,2.273A2.2754,2.2754,0,0,0,11.2734,34.4536Z"/><path class="cls-1" d="M36.7275,41A4.2732,4.2732,0,1,1,41,36.7266,4.2782,4.2782,0,0,1,36.7275,41Zm0-6.5464A2.2732,2.2732,0,1,0,39,36.7266,2.2754,2.2754,0,0,0,36.7275,34.4536Z"/><path class="cls-1" d="M29.5918,37.7266H18.4082a1,1,0,0,1,0-2H29.5918a1,1,0,0,1,0,2Z"/><path class="cls-1" d="M11.2734,30.5918a1,1,0,0,1-1-1V18.4082a1,1,0,0,1,2,0V29.5918A1,1,0,0,1,11.2734,30.5918Z"/><path class="cls-1" d="M36.7275,30.5918a1,1,0,0,1-1-1V18.4082a1,1,0,0,1,2,0V29.5918A1,1,0,0,1,36.7275,30.5918Z"/><rect class="cls-2" x="0.0149" width="48" height="48"/></svg>