<svg id="Layer_1" data-name="Layer 1" xmlns="http://www.w3.org/2000/svg" width="48" height="48" viewBox="0 0 48 48"><defs><style>.cls-1{fill:#f0efef;}.cls-2{fill:none;}</style></defs><path class="cls-1" d="M41.0325,19.2706a2.048,2.048,0,0,0-.9991-1.6981l-10.1972-6.668a1,1,0,0,0-1.0947,1.6739l8.7078,5.6943H16.46a9.4927,9.4927,0,1,0,0,18.9853h20.021a1,1,0,0,0,0-2H16.46a7.4927,7.4927,0,1,1,0-14.9853H37.45L28.7415,25.968a1,1,0,1,0,1.0947,1.6738l10.1972-6.6689a2.0472,2.0472,0,0,0,1-1.6992v-.001Z"/><rect class="cls-2" x="0.0169" y="0.0011" width="48" height="48"/></svg>