<svg xmlns="http://www.w3.org/2000/svg" width="48" height="48" viewBox="0 0 48 48"><defs><style>.cls-1{fill:#f0efef;}</style></defs><g id="Layer_2" data-name="Layer 2"><g id="Layer_1-2" data-name="Layer 1"><path class="cls-1" d="M28.41,30.55H13.89a1,1,0,1,1,0-2H28.41A.55.55,0,0,0,29,28V2.55A.55.55,0,0,0,28.41,2H2.55A.55.55,0,0,0,2,2.55V9.87a1,1,0,0,1-2,0V2.55A2.55,2.55,0,0,1,2.55,0H28.41A2.55,2.55,0,0,1,31,2.55V28A2.55,2.55,0,0,1,28.41,30.55Z"/><path class="cls-1" d="M8.05,30.5H7.91a9.24,9.24,0,0,1-5.41-2.8A9.13,9.13,0,0,1,0,21.12a9.37,9.37,0,0,1,8.59-8.91,1,1,0,0,1,1.08.92,1,1,0,0,1-.92,1.08,7.33,7.33,0,0,0-6.75,7A7.18,7.18,0,0,0,8.18,28.5a1,1,0,0,1-.13,2Z"/><path class="cls-1" d="M1,22.67H1a1,1,0,0,1-1-1,9.78,9.78,0,0,1,2.72-6.48,8.38,8.38,0,0,1,6.83-3c4.64.23,7.68,2.83,8.56,7.32a1,1,0,0,1-2,.38c-.7-3.54-3-5.52-6.7-5.7a6.34,6.34,0,0,0-5.24,2.32A7.9,7.9,0,0,0,2,21.71,1,1,0,0,1,1,22.67Z"/><path class="cls-1" d="M17.23,22.05a1,1,0,0,1-.65-1.76l3.13-2.73A1,1,0,0,1,21,19.07L17.89,21.8A1,1,0,0,1,17.23,22.05Z"/><path class="cls-1" d="M17.05,22a1,1,0,0,1-.57-.18l-3.56-2.46a1,1,0,0,1,1.14-1.64l3.56,2.46A1,1,0,0,1,17.05,22Z"/></g></g></svg>
