<svg id="Layer_1" data-name="Layer 1" xmlns="http://www.w3.org/2000/svg" width="48" height="48" viewBox="0 0 48 48"><defs><style>.cls-1{fill:#f0efef;}.cls-2{fill:none;}</style></defs><path class="cls-1" d="M38.6655,15.0381l-5.6406-6.08A2.1431,2.1431,0,0,0,31.46,8.2754H10.9009a2.1388,2.1388,0,0,0-2.1367,2.1357V37.5879a2.14,2.14,0,0,0,2.1367,2.1367H37.0991a2.14,2.14,0,0,0,2.1367-2.1367V16.49A2.1262,2.1262,0,0,0,38.6655,15.0381ZM26.353,10.2754v3.624a.1363.1363,0,0,1-.1367.1358H16.9175a.1355.1355,0,0,1-.1358-.1358v-3.624ZM16.7817,37.7246V25.1367A.1363.1363,0,0,1,16.9175,25h14.165a.1363.1363,0,0,1,.1358.1367V37.7246Zm20.4541-.1367a.1371.1371,0,0,1-.1367.1367H33.2183V25.1367A2.1389,2.1389,0,0,0,31.0825,23H16.9175a2.1389,2.1389,0,0,0-2.1358,2.1367V37.7246H10.9009a.1371.1371,0,0,1-.1367-.1367V10.4111a.1362.1362,0,0,1,.1367-.1357h3.8808v3.624a2.1381,2.1381,0,0,0,2.1358,2.1358h9.2988a2.139,2.139,0,0,0,2.1367-2.1358v-3.624H31.46a.1356.1356,0,0,1,.1.043L37.2358,16.49Z"/><path class="cls-1" d="M29.0171,28.0674H18.9819a1,1,0,0,0,0,2H29.0171a1,1,0,0,0,0-2Z"/><path class="cls-1" d="M29.0171,32.6572H18.9819a1,1,0,1,0,0,2H29.0171a1,1,0,0,0,0-2Z"/><rect class="cls-2" x="0.0149" y="-0.0926" width="48" height="48"/></svg>