<svg id="Layer_1" data-name="Layer 1" xmlns="http://www.w3.org/2000/svg" width="48" height="48" viewBox="0 0 48 48"><defs><style>.cls-1{fill:none;}.cls-2{fill:#ffd500;}</style></defs><rect class="cls-1" y="-0.0926" width="48" height="48"/><g id="Path_4" data-name="Path 4"><path class="cls-2" d="M33.4549,40.1072a1.5272,1.5272,0,0,1-.7119-.1767L24,35.3358l-8.7422,4.5908a1.5457,1.5457,0,0,1-2.2392-1.6338l1.667-9.7315L7.6121,21.6658a1.5443,1.5443,0,0,1-.0293-2.1836,1.5467,1.5467,0,0,1,.89-.4521l9.77-1.418,4.3711-8.8564a1.544,1.544,0,0,1,2.0713-.7012,1.55,1.55,0,0,1,.7041.708l4.3691,8.8535,9.7745,1.419a1.5448,1.5448,0,0,1,1.3066,1.7529,1.55,1.55,0,0,1-.4541.8857l-7.07,6.8916L34.9822,38.3a1.5457,1.5457,0,0,1-1.2617,1.7842A1.527,1.527,0,0,1,33.4549,40.1072ZM14.99,38.6317l-.001.0029ZM39.2459,21.0145h0ZM8.7586,21.01h0Zm30.2334-.7715-.0029.0029ZM9.0057,20.2313l.0029.0019Zm20.5146-2.65.002.0009Zm-11.0429-.003h0Z"/></g></svg>