<svg id="Layer_1" data-name="Layer 1" xmlns="http://www.w3.org/2000/svg" width="48" height="48" viewBox="0 0 48 48"><defs><style>.cls-1{fill:#f0efef;}.cls-2{fill:none;}</style></defs><path class="cls-1" d="M18.9359,40.12a3.1869,3.1869,0,0,0,4.5,0L40.12,23.4368A3.1765,3.1765,0,0,0,41.04,20.931l-.8267-10.2285a3.1686,3.1686,0,0,0-2.9145-2.9161L27.0712,6.96a3.1672,3.1672,0,0,0-2.5064.9218L7.8812,24.5657a3.1806,3.1806,0,0,0,0,4.4991ZM9.2953,25.98,25.98,9.2952a1.1773,1.1773,0,0,1,.8335-.3447c.0318,0,.064.001.0962.0039l10.2286.8262a1.1766,1.1766,0,0,1,1.0825,1.082l.8266,10.2295a1.1821,1.1821,0,0,1-.3423.9307L22.0214,38.7064a1.1821,1.1821,0,0,1-1.6714,0L9.2953,27.6507a1.1812,1.1812,0,0,1,0-1.6709Z"/><path class="cls-1" d="M30.82,20.7425a3.7127,3.7127,0,0,0,2.6255-6.3379,3.8017,3.8017,0,0,0-5.25,0A3.7127,3.7127,0,0,0,30.82,20.7425Zm-1.211-4.9238a1.7127,1.7127,0,1,1,2.4224,2.4218,1.7552,1.7552,0,0,1-2.4224,0,1.7117,1.7117,0,0,1,0-2.4218Z"/><rect class="cls-2" x="0.0169" y="0.0011" width="48" height="48"/></svg>