<?xml version="1.0" encoding="utf-8"?>
<!-- Generator: Adobe Illustrator 24.2.3, SVG Export Plug-In . SVG Version: 6.00 Build 0)  -->
<svg version="1.1" id="Layer_1" xmlns="http://www.w3.org/2000/svg" xmlns:xlink="http://www.w3.org/1999/xlink" x="0px" y="0px"
	 viewBox="0 0 48 48" style="enable-background:new 0 0 48 48;" xml:space="preserve">
<style type="text/css">
	.st0{display:none;}
	.st1{display:inline;}
	.st2{fill:#525353;}
	.st3{fill:none;stroke:#DBDBDB;stroke-width:5.000000e-02;stroke-miterlimit:10;}
	.st4{opacity:0.5;fill:#F6D2D6;stroke:#F4B8C0;stroke-width:0.25;stroke-miterlimit:10;}
	.st5{display:inline;fill:none;}
	.st6{fill:none;stroke:#000000;stroke-width:2;stroke-linecap:round;stroke-miterlimit:10;}
	.st7{fill:none;stroke:#000000;stroke-width:2;stroke-linecap:round;stroke-linejoin:round;stroke-miterlimit:10;}
	.st8{fill:none;stroke:#000000;stroke-width:2;stroke-miterlimit:10;}
	.st9{fill:none;stroke:#000000;stroke-width:1.5;stroke-miterlimit:10;}
	.st10{fill:none;stroke:#000000;stroke-linecap:round;stroke-miterlimit:10;}
	.st11{fill:#606060;stroke:#000000;stroke-width:2;stroke-miterlimit:10;}
	.st12{fill:#606060;}
	.st13{fill:#F0EFEF;}
	.st14{fill:#4285F4;}
	.st15{fill:#FFFFFF;}
	.st16{fill:#0F9D58;}
	.st17{fill:#FFAA00;}
	.st18{fill:#D93025;}
	.st19{fill:#8C15FF;}
	.st20{fill:#474747;}
	.st21{fill:none;}
</style>
<rect x="0" y="-0.1" class="st21" width="48" height="48"/>
<g>
	<path class="st13" d="M38.4,10.5h-2.3h-5.5V8.1c0-1.5-1.2-2.7-2.7-2.7h-7.8c-1.5,0-2.7,1.2-2.7,2.7v2.4h-5.5H9.6c-0.6,0-1,0.4-1,1
		s0.4,1,1,1h2.3V40c0,1.5,1.2,2.7,2.7,2.7h18.8c1.5,0,2.7-1.2,2.7-2.7V12.5h2.3c0.6,0,1-0.4,1-1S39,10.5,38.4,10.5z M19.4,8.1
		c0-0.4,0.3-0.7,0.7-0.7h7.8c0.4,0,0.7,0.3,0.7,0.7v2.4h-9.3V8.1z M34.1,40c0,0.4-0.3,0.7-0.7,0.7H14.6c-0.4,0-0.7-0.3-0.7-0.7V12.5
		h3.5h13.3h3.5V40z"/>
	<path class="st13" d="M20.3,17.5c-0.6,0-1,0.4-1,1v16c0,0.6,0.4,1,1,1s1-0.4,1-1v-16C21.3,17.9,20.9,17.5,20.3,17.5z"/>
	<path class="st13" d="M27.7,17.5c-0.6,0-1,0.4-1,1v16c0,0.6,0.4,1,1,1s1-0.4,1-1v-16C28.7,17.9,28.2,17.5,27.7,17.5z"/>
</g>
</svg>
