<svg id="Layer_1" data-name="Layer 1" xmlns="http://www.w3.org/2000/svg" width="48" height="48" viewBox="0 0 48 48"><defs><style>.cls-1{fill:#f0efef;}.cls-2{fill:none;}</style></defs><path class="cls-1" d="M31.5408,18.2729H10.55l8.7083-5.6943a1,1,0,0,0-1.0947-1.6739L7.9661,17.5727a1.946,1.946,0,0,0,0,3.4L18.1638,27.642a1,1,0,0,0,1.0947-1.6738L10.55,20.2729H31.5408a7.4927,7.4927,0,0,1,0,14.9854H11.5193a1,1,0,0,0,0,2H31.5408a9.4927,9.4927,0,0,0,0-18.9854Z"/><rect class="cls-2" x="0.0188" y="0.0011" width="48" height="48"/></svg>