<svg id="Layer_1" data-name="Layer 1" xmlns="http://www.w3.org/2000/svg" width="48" height="48" viewBox="0 0 48 48"><defs><style>.cls-1{fill:#f0efef;}.cls-2{fill:none;}</style></defs><path class="cls-1" d="M10.1614,37.1479H37.8386A1.6891,1.6891,0,0,0,39.5261,35.46V12.54a1.6891,1.6891,0,0,0-1.6875-1.6875H10.1614A1.6891,1.6891,0,0,0,8.4739,12.54V35.46A1.6891,1.6891,0,0,0,10.1614,37.1479Zm.3125-24.2958H37.5261v3.5361H10.4739Zm0,5.5361H37.5261v16.76H10.4739Z"/><path class="cls-1" d="M35.7224,14.12h-6.02a.5.5,0,0,0,0,1h6.02a.5.5,0,0,0,0-1Z"/><path class="cls-1" d="M27.18,14.12H25.0061a.5.5,0,1,0,0,1H27.18a.5.5,0,0,0,0-1Z"/><path class="cls-1" d="M11.7512,14.2627a.5546.5546,0,0,0-.15.36.6427.6427,0,0,0,.04.19.5725.5725,0,0,0,.11.16.51.51,0,0,0,.35.15.5546.5546,0,0,0,.36-.15.541.541,0,0,0,.1-.16.436.436,0,0,0,.04-.19.5438.5438,0,0,0-.14-.36A.5338.5338,0,0,0,11.7512,14.2627Z"/><path class="cls-1" d="M14.6511,14.1626a.4913.4913,0,0,0-.54.1.5541.5541,0,0,0-.15.36.436.436,0,0,0,.04.19.575.575,0,0,0,.11.16.4568.4568,0,0,0,.16.11.6458.6458,0,0,0,.19.04.4023.4023,0,0,0,.19-.04.6134.6134,0,0,0,.17-.11.539.539,0,0,0,.1-.16.4292.4292,0,0,0,.04-.19.5409.5409,0,0,0-.14-.36A.5813.5813,0,0,0,14.6511,14.1626Z"/><path class="cls-1" d="M17.1814,14.2627a.5338.5338,0,0,0-.71,0,.6167.6167,0,0,0-.11.17.5859.5859,0,0,0-.04.19.5132.5132,0,0,0,.5.5.5548.5548,0,0,0,.36-.15.5394.5394,0,0,0,.1-.16.429.429,0,0,0,.04-.19.4027.4027,0,0,0-.04-.19A.581.581,0,0,0,17.1814,14.2627Z"/><rect class="cls-2" x="0.0169" width="48" height="48"/></svg>