<svg id="Layer_1" data-name="Layer 1" xmlns="http://www.w3.org/2000/svg" width="48" height="48" viewBox="0 0 48 48"><defs><style>.cls-1{fill:#f0efef;}.cls-2{fill:none;}</style></defs><path class="cls-1" d="M32.6482,31.2341A12.6488,12.6488,0,1,0,31.2356,32.65l4.6877,4.6877a1,1,0,0,0,1.4141-1.4141ZM30.563,30.563a10.6578,10.6578,0,1,1,0-15.0713A10.5884,10.5884,0,0,1,30.563,30.563Z"/><path class="cls-1" d="M27.8091,22.0269H24.0269V18.2446a1,1,0,0,0-2,0v3.7823H18.2446a1,1,0,0,0,0,2h3.7823V27.81a1,1,0,0,0,2,0V24.0269h3.7822a1,1,0,0,0,0-2Z"/><rect class="cls-2" x="0.0149" width="48" height="48"/></svg>