<svg id="Layer_1" data-name="Layer 1" xmlns="http://www.w3.org/2000/svg" width="48" height="48" viewBox="0 0 48 48"><defs><style>.cls-1{fill:#f0efef;}.cls-2{fill:none;}</style></defs><path class="cls-1" d="M37.9213,21.4785a3.51,3.51,0,0,0,0-4.9287l-6.4981-6.4893a3.558,3.558,0,0,0-4.9258.001L15.8129,20.7847l11.42,11.42ZM18.639,20.7817l9.2735-9.3071a1.4667,1.4667,0,0,1,2.0967,0L36.5023,17.96a1.5034,1.5034,0,0,1,.001,2.1089L27.2308,29.374Z"/><path class="cls-1" d="M16.889,38.2065a3.5766,3.5766,0,0,0,2.1582.7227,3.517,3.517,0,0,0,2.2139-.7788L26.23,33.3813,14.806,21.9575l-4.72,4.5615a3.4894,3.4894,0,0,0,.001,4.9283C16.7592,38.1094,16.8177,38.1528,16.889,38.2065Zm-5.4-10.2617,3.294-3.1826,8.59,8.59-3.43,3.2964a1.55,1.55,0,0,1-1.7773.0215c-.2178-.2056-4.1055-4.0825-6.6641-6.6382A1.4828,1.4828,0,0,1,11.4886,27.9448Z"/><path class="cls-1" d="M29.6979,14.7524a.8276.8276,0,0,0-1.17,1.1705l3.5381,3.538a.8305.8305,0,0,0,1.17,0,.8413.8413,0,0,0,0-1.1793Z"/><rect class="cls-2" x="0.0008" y="0.0011" width="48" height="48"/></svg>