<svg id="Layer_1" data-name="Layer 1" xmlns="http://www.w3.org/2000/svg" width="48" height="48" viewBox="0 0 48 48"><defs><style>.cls-1{fill:#f0efef;}.cls-2{fill:none;}</style></defs><path class="cls-1" d="M37.5259,10.0437H27.6147a2.0077,2.0077,0,0,0-1.875,1.3052L24.645,14.302H10.4741a1.9676,1.9676,0,0,0-2,1.9282V35.9563a2.0023,2.0023,0,0,0,2,2H37.5259a2.0023,2.0023,0,0,0,2-2V12.0437A2.0023,2.0023,0,0,0,37.5259,10.0437ZM10.4741,16.302h13.43l-.7683,2.0728H10.4741ZM37.5259,35.9563H10.4741V20.3748H23.1353a2.0208,2.0208,0,0,0,1.8769-1.2623l1.2717-3.4783,1.3308-3.59,9.9112-.0005Z"/><rect class="cls-2" x="0.0008" width="48" height="48"/></svg>