<svg id="Layer_1" data-name="Layer 1" xmlns="http://www.w3.org/2000/svg" width="48" height="48" viewBox="0 0 48 48"><defs><style>.cls-1{fill:#f0efef;}.cls-2{fill:none;}</style></defs><path class="cls-1" d="M11.3809,39.0776a1,1,0,0,1-1-1V9.9224a1,1,0,0,1,2,0V38.0776A1,1,0,0,1,11.3809,39.0776Z"/><path class="cls-1" d="M36.6191,27.5679H11.3809a1,1,0,0,1-1-1V21.4331a1,1,0,0,1,1-1H36.6191a1,1,0,0,1,1,1v5.1348A1,1,0,0,1,36.6191,27.5679Zm-24.2382-2H35.6191V22.4331H12.3809Z"/><path class="cls-1" d="M27.7524,18.6782H11.3809a1,1,0,0,1-1-1V12.5435a1,1,0,0,1,1-1H27.7524a1,1,0,0,1,1,1v5.1347A1,1,0,0,1,27.7524,18.6782Zm-15.3715-2H26.7524V13.5435H12.3809Z"/><path class="cls-1" d="M21.68,36.4565H11.3809a1,1,0,0,1-1-1V30.3218a1,1,0,0,1,1-1H21.68a1,1,0,0,1,1,1v5.1347A1,1,0,0,1,21.68,36.4565Zm-9.2988-2H20.68V31.3218H12.3809Z"/><rect class="cls-2" x="0.0188" width="48" height="48"/></svg>