<?xml version="1.0" encoding="iso-8859-1"?>
<!-- Generator: Adobe Illustrator 18.1.1, SVG Export Plug-In . SVG Version: 6.00 Build 0)  -->
<svg version="1.1" id="Capa_1" xmlns="http://www.w3.org/2000/svg" xmlns:xlink="http://www.w3.org/1999/xlink" x="0px" y="0px"
	 viewBox="0 0 13.586 13.586" style="enable-background:new 0 0 13.586 13.586;" xml:space="preserve">
<g>
	<g>
		<path style="fill:#030104;" d="M9.373,5.917V3.533c0-0.483-0.393-0.876-0.876-0.876H1.112c-0.484,0-0.876,0.393-0.876,0.876v2.384
			c0,0.484,0.392,0.876,0.876,0.876h7.385C8.981,6.793,9.373,6.401,9.373,5.917z M3.321,6.167L3.277,5.053
			C3.264,4.703,3.251,4.28,3.251,3.857H3.238c-0.09,0.371-0.211,0.786-0.324,1.126L2.56,6.119H2.047L1.736,4.992
			C1.641,4.651,1.542,4.237,1.473,3.857H1.464C1.447,4.25,1.434,4.698,1.412,5.061L1.36,6.166H0.752l0.186-2.91h0.876l0.285,0.971
			C2.19,4.563,2.28,4.926,2.345,5.267h0.013C2.44,4.931,2.539,4.546,2.634,4.223l0.311-0.967h0.859l0.16,2.91H3.321V6.167z
			 M6.29,4.833C6.065,5.044,5.733,5.14,5.344,5.14c-0.086,0-0.164-0.004-0.225-0.013v1.041H4.467V3.295
			C4.67,3.26,4.955,3.234,5.356,3.234c0.406,0,0.695,0.078,0.89,0.233c0.186,0.147,0.311,0.389,0.311,0.674S6.462,4.668,6.29,4.833z
			 M6.855,6.016l0.133-0.493C7.105,5.584,7.372,5.696,7.64,5.696c0.342,0,0.514-0.164,0.514-0.375c0-0.276-0.275-0.401-0.565-0.401
			H7.321V4.449h0.255c0.22-0.004,0.501-0.086,0.501-0.324c0-0.168-0.139-0.294-0.415-0.294c-0.229,0-0.47,0.099-0.587,0.168
			L6.941,3.524c0.168-0.108,0.505-0.212,0.868-0.212c0.6,0,0.933,0.315,0.933,0.699c0,0.298-0.169,0.531-0.515,0.652v0.009
			c0.338,0.06,0.609,0.315,0.609,0.682c0,0.497-0.437,0.859-1.148,0.859C7.325,6.214,7.018,6.119,6.855,6.016z"/>
		<path style="fill:#030104;" d="M5.391,3.731c-0.134,0-0.225,0.013-0.272,0.026v0.859c0.057,0.013,0.125,0.018,0.22,0.018
			c0.35,0,0.565-0.177,0.565-0.475C5.905,3.892,5.719,3.731,5.391,3.731z"/>
		<path style="fill:#030104;" d="M12.986,0H3.452C3.25,0,3.087,0.164,3.087,0.365v1.744h1.096V0.915h8.019v8.581l-2.176-0.003
			c-0.107,0-0.21,0.043-0.286,0.119C9.664,9.687,9.622,9.791,9.622,9.898L9.63,12.62H4.183V7.327H3.087v5.894
			c0,0.202,0.164,0.365,0.365,0.365h7.111c0.104,0,0.202-0.045,0.271-0.122l2.424-2.713c0.06-0.067,0.092-0.153,0.092-0.243V0.365
			C13.351,0.164,13.188,0,12.986,0z"/>
	</g>
</g>
<g>
</g>
<g>
</g>
<g>
</g>
<g>
</g>
<g>
</g>
<g>
</g>
<g>
</g>
<g>
</g>
<g>
</g>
<g>
</g>
<g>
</g>
<g>
</g>
<g>
</g>
<g>
</g>
<g>
</g>
</svg>
